<svg version="1.1" id="Layer_1" xmlns="http://www.w3.org/2000/svg" xmlns:xlink="http://www.w3.org/1999/xlink" x="0px" y="0px"
	 width="100%" viewBox="0 0 1080 1080" enable-background="" xml:space="preserve">
<path fill="" opacity="" stroke="none" 
	d="
M522.000000,1081.000000 
	C348.020020,1081.000000 174.540039,1081.000000 1.030031,1081.000000 
	C1.030031,721.061584 1.030031,361.123138 1.030031,1.092345 
	C360.896881,1.092345 720.793762,1.092345 1080.845337,1.092345 
	C1080.845337,360.999939 1080.845337,720.999939 1080.845337,1081.000000 
	C894.789307,1081.000000 708.644653,1081.000000 522.000000,1081.000000 
M325.003632,325.494293 
	C311.530670,330.603638 298.063812,335.729095 284.583344,340.818573 
	C264.062622,348.566040 243.522766,356.263031 223.009674,364.030731 
	C209.303696,369.220825 195.630096,374.496460 181.966507,379.724426 
	C184.914032,390.408691 184.091202,396.136200 178.586182,397.658600 
	C169.785156,400.092529 166.693695,393.585358 164.498047,386.668457 
	C133.988312,398.062836 104.027626,409.252167 73.945549,420.486847 
	C74.040802,421.931946 73.821205,423.354309 74.259033,424.532318 
	C81.230652,443.290314 88.257805,462.027802 95.329720,480.748291 
	C105.684029,508.157806 115.628471,535.735352 126.664848,562.868164 
	C131.865311,575.653442 133.875656,588.441101 133.048279,601.988098 
	C132.748047,606.903992 133.000000,611.853638 133.000000,616.752197 
	C165.318405,616.752197 197.071808,616.752197 228.811066,616.752197 
	C229.303955,607.189209 232.878448,602.061768 239.255966,602.104004 
	C241.024277,602.115662 243.595810,602.878662 244.395416,604.167664 
	C246.760757,607.980530 248.424744,612.228394 250.692841,616.999878 
	C250.325348,616.999878 251.137955,616.997192 251.950546,617.000305 
	C338.510895,617.333313 425.071198,617.680298 511.631622,617.989685 
	C531.292236,618.059998 550.958069,618.253235 570.612000,617.882751 
	C579.198914,617.720886 587.494446,615.512085 594.507751,609.977600 
	C606.108276,600.823120 608.267029,579.353638 598.702820,568.362610 
	C595.263306,564.409973 590.853516,561.301636 587.379395,558.242065 
	C589.884644,556.265747 593.731262,554.291138 596.092468,551.186768 
	C606.802795,537.105286 604.332825,511.652435 582.279846,505.122345 
	C576.135437,503.302917 569.557739,502.274841 563.151978,502.137543 
	C544.886292,501.746002 526.606812,502.000000 507.941254,502.000000 
	C507.941254,482.809479 507.941254,464.071411 507.941254,445.014282 
	C499.440094,445.014282 491.327179,445.014282 483.471191,445.014282 
	C480.551117,437.134827 477.805115,429.608063 474.975555,422.112762 
	C467.737183,402.938660 460.442902,383.785645 453.205750,364.611084 
	C444.442352,341.392914 435.680603,318.173981 426.998260,294.925476 
	C425.097504,289.835968 423.264191,288.653564 417.892792,290.619476 
	C400.459229,297.000031 383.082855,303.537140 365.691864,310.033691 
	C352.345642,315.019318 339.010529,320.034760 325.003632,325.494293 
M908.478394,599.986572 
	C901.291626,590.599609 894.104858,581.212585 887.110901,572.077454 
	C898.480835,556.634155 909.711304,541.380310 920.941772,526.126465 
	C907.072266,525.000000 894.414062,525.192505 881.768860,524.869873 
	C878.444946,524.785034 876.658630,526.070923 875.107605,528.444092 
	C870.176392,535.989075 865.257202,543.542236 860.401184,551.135620 
	C859.398071,552.704102 858.687805,554.459839 857.842529,556.129272 
	C857.177246,555.580261 856.511963,555.031250 855.846680,554.482300 
	C855.846680,535.417358 855.846680,516.352417 855.846680,497.252563 
	C843.427368,497.252563 831.356384,497.252563 819.250732,497.252563 
	C819.250732,537.573364 819.250732,577.641113 819.250732,617.746765 
	C831.574036,617.746765 843.644958,617.746765 856.043335,617.746765 
	C856.043335,607.730530 856.043335,597.961670 856.043335,586.551575 
	C858.132568,588.640076 859.463013,589.566162 860.256653,590.829529 
	C865.132385,598.591003 870.031555,606.345459 874.598938,614.288635 
	C876.095398,616.891052 877.613342,618.141357 880.695435,618.062500 
	C888.189453,617.870728 895.691650,618.000000 903.190552,618.000000 
	C909.085022,618.000000 914.979553,618.000000 922.375916,618.000000 
	C917.348694,611.422729 913.174316,605.961365 908.478394,599.986572 
M805.046021,550.475830 
	C800.510193,540.227051 793.142090,533.161865 782.654480,528.811157 
	C773.585632,525.049072 764.519226,524.124146 754.833984,524.866821 
	C743.380005,525.745178 733.383240,529.667542 725.176575,537.441467 
	C710.568604,551.279053 708.079468,576.081177 716.331543,593.474243 
	C723.171204,607.890442 735.169434,615.766602 751.198853,618.167480 
	C768.445312,620.750671 783.827026,617.560181 796.769714,605.638184 
	C810.423767,593.060913 812.461548,568.260071 805.046021,550.475830 
M615.349670,547.122742 
	C610.297424,558.902405 608.288025,571.064697 611.018738,583.741272 
	C613.678589,596.088989 620.447266,605.522156 631.327393,612.046570 
	C643.881165,619.574646 657.470276,620.538574 671.357239,617.881226 
	C681.202209,615.997314 690.098816,611.481201 696.653992,603.676819 
	C707.799316,590.407715 709.085754,574.686218 705.836304,558.575867 
	C703.518738,547.085632 697.057190,538.037720 686.597351,531.828308 
	C676.169434,525.637756 665.188354,524.013550 653.315613,524.908386 
	C637.205505,526.122681 624.528076,532.716797 615.349670,547.122742 
M1016.817139,617.999939 
	C1023.432434,617.999939 1030.047729,617.999939 1036.776611,617.999939 
	C1036.776611,607.144653 1036.776611,596.736938 1036.776611,585.999146 
	C1033.762817,585.999146 1030.788086,586.594727 1028.225708,585.822449 
	C1025.918213,585.126770 1022.417786,583.059387 1022.287231,581.376343 
	C1021.663330,573.334595 1022.007507,565.217651 1022.007507,556.744873 
	C1027.389038,556.744873 1032.132324,556.744873 1037.000000,556.744873 
	C1037.000000,547.192017 1036.906128,538.036560 1037.051147,528.884766 
	C1037.101807,525.696533 1035.720459,524.838867 1032.831543,524.963257 
	C1029.255249,525.117188 1025.667480,525.000122 1021.700867,525.000122 
	C1021.700867,517.561096 1021.700867,510.814331 1021.700867,504.352844 
	C1009.223816,504.352844 997.149780,504.352844 984.694275,504.352844 
	C984.694275,511.455475 984.694275,518.207581 984.694275,525.001099 
	C981.635315,525.001099 978.905029,524.659729 976.331604,525.147156 
	C975.070984,525.385864 973.176575,527.139526 973.146729,528.250000 
	C972.892517,537.698059 973.001160,547.155884 973.001160,557.001465 
	C977.123413,557.001465 980.872375,557.001465 985.000000,557.001465 
	C985.000000,567.180908 984.553650,576.995422 985.123169,586.750610 
	C985.715637,596.898376 988.728943,606.496277 998.421265,611.683594 
	C1003.822571,614.574280 1010.038147,615.943481 1016.817139,617.999939 
M962.322388,617.999756 
	C966.285156,618.452209 964.951355,615.449036 964.955444,613.666016 
	C965.019104,586.002075 965.000000,558.337830 965.000000,530.673706 
	C965.000000,529.226196 965.000000,527.778748 965.000000,526.230591 
	C952.139771,526.230591 939.735291,526.230591 927.232056,526.230591 
	C927.232056,556.864868 927.232056,587.268005 927.232056,618.000000 
	C938.756653,618.000000 950.052490,618.000000 962.322388,617.999756 
M960.370361,486.913849 
	C952.349792,481.892487 943.881653,481.641205 935.324646,485.049469 
	C922.469543,490.169769 922.676331,506.924255 929.048523,513.609436 
	C934.107666,518.917053 940.241882,520.234619 947.241089,520.070374 
	C956.022339,519.864197 962.676086,516.591492 966.181274,508.273315 
	C968.956604,501.687195 967.912048,493.167603 960.370361,486.913849 
z"/>
<path fill="#FFFFFF" opacity="1.000000" stroke="none" 
	d="
M325.337036,325.265625 
	C339.010529,320.034760 352.345642,315.019318 365.691864,310.033691 
	C383.082855,303.537140 400.459229,297.000031 417.892792,290.619476 
	C423.264191,288.653564 425.097504,289.835968 426.998260,294.925476 
	C435.680603,318.173981 444.442352,341.392914 453.205750,364.611084 
	C460.442902,383.785645 467.737183,402.938660 474.975555,422.112762 
	C477.805115,429.608063 480.551117,437.134827 483.471191,445.014282 
	C491.327179,445.014282 499.440094,445.014282 507.941254,445.014282 
	C507.941254,464.071411 507.941254,482.809479 507.941254,502.000000 
	C526.606812,502.000000 544.886292,501.746002 563.151978,502.137543 
	C569.557739,502.274841 576.135437,503.302917 582.279846,505.122345 
	C604.332825,511.652435 606.802795,537.105286 596.092468,551.186768 
	C593.731262,554.291138 589.884644,556.265747 587.379395,558.242065 
	C590.853516,561.301636 595.263306,564.409973 598.702820,568.362610 
	C608.267029,579.353638 606.108276,600.823120 594.507751,609.977600 
	C587.494446,615.512085 579.198914,617.720886 570.612000,617.882751 
	C550.958069,618.253235 531.292236,618.059998 511.631622,617.989685 
	C425.071198,617.680298 338.510895,617.333313 251.950546,617.000305 
	C251.137955,616.997192 250.325348,616.999878 250.692841,616.999878 
	C248.424744,612.228394 246.760757,607.980530 244.395416,604.167664 
	C243.595810,602.878662 241.024277,602.115662 239.255966,602.104004 
	C232.878448,602.061768 229.303955,607.189209 228.811066,616.752197 
	C197.071808,616.752197 165.318405,616.752197 133.000000,616.752197 
	C133.000000,611.853638 132.748047,606.903992 133.048279,601.988098 
	C133.875656,588.441101 131.865311,575.653442 126.664848,562.868164 
	C115.628471,535.735352 105.684029,508.157806 95.329720,480.748291 
	C88.257805,462.027802 81.230652,443.290314 74.259033,424.532318 
	C73.821205,423.354309 74.040802,421.931946 73.945549,420.486847 
	C104.027626,409.252167 133.988312,398.062836 164.498047,386.668457 
	C166.693695,393.585358 169.785156,400.092529 178.586182,397.658600 
	C184.091202,396.136200 184.914032,390.408691 181.966507,379.724426 
	C195.630096,374.496460 209.303696,369.220825 223.009674,364.030731 
	C243.522766,356.263031 264.062622,348.566040 284.583344,340.818573 
	C298.063812,335.729095 311.530670,330.603638 325.337036,325.265625 
M437.035431,422.303406 
	C435.179810,417.187256 433.377869,412.050873 431.459320,406.958435 
	C422.765137,383.880890 414.034576,360.816986 405.324493,337.745422 
	C402.066528,329.115570 398.828613,320.478149 395.420837,311.416870 
	C381.476227,316.733643 368.032440,321.904694 354.555542,326.987823 
	C331.031586,335.860413 307.476013,344.649200 283.954285,353.527649 
	C255.342056,364.327545 226.757202,375.200043 198.139084,385.984222 
	C195.913483,386.822906 195.132843,387.957855 194.842743,390.469818 
	C194.414108,394.181458 193.839432,398.499329 191.661591,401.231659 
	C188.798538,404.823639 188.038940,410.815552 182.051514,411.433624 
	C180.406281,411.603455 178.644089,411.574219 177.063782,411.154022 
	C175.711655,410.794464 174.564743,409.146851 173.289734,409.100708 
	C166.866226,408.868195 161.953308,406.074951 158.243607,401.163635 
	C153.558456,402.871735 148.915970,404.564270 144.177734,406.291718 
	C145.105621,408.770203 145.981369,411.127014 146.869537,413.479126 
	C155.581085,436.549652 164.304016,459.615875 173.004852,482.690460 
	C180.687820,503.065704 188.317245,523.461365 196.129074,543.786987 
	C196.427979,544.564758 198.522156,545.284607 199.542770,545.040466 
	C203.393295,544.119446 207.145828,542.788696 211.183380,541.534119 
	C209.804428,532.682983 216.121597,527.120850 220.123459,520.754517 
	C221.449783,518.644653 226.070557,516.595825 228.172119,517.348267 
	C235.378937,519.928589 244.303543,519.196045 248.306961,527.039795 
	C315.369751,501.628387 381.669312,476.506165 448.299530,451.258636 
	C444.676147,441.796509 441.073090,432.387482 437.035431,422.303406 
M473.000000,501.500000 
	C473.000000,486.372803 473.000000,471.245605 473.000000,454.750549 
	C426.908325,472.168060 381.651459,489.270142 336.394562,506.372192 
	C343.749451,507.000000 350.993591,506.928802 358.235779,507.016602 
	C369.232483,507.149841 367.967560,505.158752 367.951630,516.776855 
	C367.951263,517.059814 367.719910,517.342529 367.432526,517.999878 
	C366.638489,517.999878 365.678741,517.999878 364.718994,517.999878 
	C346.061615,517.999939 327.404114,517.972473 308.746979,518.041870 
	C306.848419,518.048950 304.845825,518.349854 303.071167,519.002747 
	C286.243317,525.193909 269.585205,531.881592 252.591705,537.570374 
	C245.517441,539.938538 242.441925,543.365906 243.961014,550.675964 
	C244.107956,551.383057 243.729736,552.199280 243.589325,552.998962 
	C240.992554,552.998962 238.606033,553.302002 236.356171,552.878723 
	C235.120804,552.646240 233.248932,551.268066 233.158783,550.271362 
	C232.793137,546.228271 233.006836,542.132812 233.006836,537.910522 
	C235.973877,537.910522 238.254852,537.910522 240.593307,537.910522 
	C238.130051,531.657654 234.359558,528.847595 229.517532,530.061707 
	C223.980316,531.450195 225.011856,536.120728 225.004837,540.153015 
	C224.989319,549.071960 225.000000,557.990906 225.000000,566.661621 
	C220.914413,566.661621 217.508286,566.661621 213.756897,566.661621 
	C213.756897,561.922363 213.756897,557.521423 213.756897,553.064697 
	C204.286057,554.976440 204.000000,555.311157 204.000000,564.130249 
	C204.000000,574.458435 204.000000,584.786621 204.000000,595.114807 
	C204.000000,599.036621 204.000000,602.958435 204.000000,606.999939 
	C208.472290,606.999939 212.323135,607.271667 216.099030,606.858521 
	C217.496323,606.705566 219.334793,605.209412 219.914352,603.868591 
	C222.764832,597.274292 233.321182,590.257874 240.493774,589.867432 
	C243.580536,589.699402 244.810944,591.926392 246.950272,592.871094 
	C253.406097,595.721924 257.762695,600.232178 259.323334,606.197327 
	C330.868317,606.197327 401.842529,606.197327 473.000000,606.197327 
	C473.000000,571.096680 473.000000,536.798340 473.000000,501.500000 
M560.292114,573.993591 
	C554.664124,573.529236 549.036133,573.064880 543.191040,572.582642 
	C543.191040,577.818970 543.191040,582.205139 543.191040,587.000000 
	C548.462158,587.000000 553.563110,586.805603 558.640747,587.066040 
	C562.229553,587.250122 565.077332,586.064819 565.851257,582.718689 
	C566.741394,578.870483 566.033875,575.107666 560.292114,573.993591 
M543.000244,535.663574 
	C543.000244,539.399170 543.000244,543.134827 543.000244,547.505432 
	C549.027954,546.959106 554.490356,546.983826 559.636780,545.720764 
	C561.482605,545.267761 563.557800,541.793335 563.749878,539.545837 
	C563.997864,536.643982 562.481018,533.307556 558.703247,533.081482 
	C553.915771,532.794922 549.096497,532.977356 544.294495,533.099182 
	C543.851135,533.110474 543.433594,534.144165 543.000244,535.663574 
z"/>
<path fill="#FFFFFF" opacity="1.000000" stroke="none" 
	d="
M908.739197,600.243286 
	C913.174316,605.961365 917.348694,611.422729 922.375916,618.000000 
	C914.979553,618.000000 909.085022,618.000000 903.190552,618.000000 
	C895.691650,618.000000 888.189453,617.870728 880.695435,618.062500 
	C877.613342,618.141357 876.095398,616.891052 874.598938,614.288635 
	C870.031555,606.345459 865.132385,598.591003 860.256653,590.829529 
	C859.463013,589.566162 858.132568,588.640076 856.043335,586.551575 
	C856.043335,597.961670 856.043335,607.730530 856.043335,617.746765 
	C843.644958,617.746765 831.574036,617.746765 819.250732,617.746765 
	C819.250732,577.641113 819.250732,537.573364 819.250732,497.252563 
	C831.356384,497.252563 843.427368,497.252563 855.846680,497.252563 
	C855.846680,516.352417 855.846680,535.417358 855.846680,554.482300 
	C856.511963,555.031250 857.177246,555.580261 857.842529,556.129272 
	C858.687805,554.459839 859.398071,552.704102 860.401184,551.135620 
	C865.257202,543.542236 870.176392,535.989075 875.107605,528.444092 
	C876.658630,526.070923 878.444946,524.785034 881.768860,524.869873 
	C894.414062,525.192505 907.072266,525.000000 920.941772,526.126465 
	C909.711304,541.380310 898.480835,556.634155 887.110901,572.077454 
	C894.104858,581.212585 901.291626,590.599609 908.739197,600.243286 
z"/>
<path fill="#FFFFFF" opacity="1.000000" stroke="none" 
	d="
M805.312622,550.768921 
	C812.461548,568.260071 810.423767,593.060913 796.769714,605.638184 
	C783.827026,617.560181 768.445312,620.750671 751.198853,618.167480 
	C735.169434,615.766602 723.171204,607.890442 716.331543,593.474243 
	C708.079468,576.081177 710.568604,551.279053 725.176575,537.441467 
	C733.383240,529.667542 743.380005,525.745178 754.833984,524.866821 
	C764.519226,524.124146 773.585632,525.049072 782.654480,528.811157 
	C793.142090,533.161865 800.510193,540.227051 805.312622,550.768921 
M770.999268,567.027161 
	C770.125305,561.663879 766.832153,558.135620 761.749939,557.163330 
	C757.532288,556.356384 754.194641,559.179993 752.189392,562.669678 
	C748.714478,568.717163 749.232971,575.199951 752.159424,581.214966 
	C754.912292,586.873352 762.320740,587.588196 767.156128,583.429932 
	C772.212036,579.082031 770.743347,573.331787 770.999268,567.027161 
z"/>
<path fill="#FFFFFF" opacity="1.000000" stroke="none" 
	d="
M615.639282,546.865723 
	C624.528076,532.716797 637.205505,526.122681 653.315613,524.908386 
	C665.188354,524.013550 676.169434,525.637756 686.597351,531.828308 
	C697.057190,538.037720 703.518738,547.085632 705.836304,558.575867 
	C709.085754,574.686218 707.799316,590.407715 696.653992,603.676819 
	C690.098816,611.481201 681.202209,615.997314 671.357239,617.881226 
	C657.470276,620.538574 643.881165,619.574646 631.327393,612.046570 
	C620.447266,605.522156 613.678589,596.088989 611.018738,583.741272 
	C608.288025,571.064697 610.297424,558.902405 615.639282,546.865723 
M648.991455,565.805115 
	C648.995972,570.082581 648.038879,574.678528 649.315857,578.534607 
	C650.299072,581.503662 653.692505,584.525757 656.730408,585.757141 
	C660.943237,587.464661 664.591125,584.655151 667.215576,581.195740 
	C669.729431,577.882080 669.784180,566.410950 667.347412,562.902405 
	C666.366577,561.490173 665.256531,560.055237 663.900940,559.035217 
	C657.843445,554.477234 651.725403,558.755859 648.991455,565.805115 
z"/>
<path fill="#FFFFFF" opacity="1.000000" stroke="none" 
	d="
M1016.351929,617.999146 
	C1010.038147,615.943481 1003.822571,614.574280 998.421265,611.683594 
	C988.728943,606.496277 985.715637,596.898376 985.123169,586.750610 
	C984.553650,576.995422 985.000000,567.180908 985.000000,557.001465 
	C980.872375,557.001465 977.123413,557.001465 973.001160,557.001465 
	C973.001160,547.155884 972.892517,537.698059 973.146729,528.250000 
	C973.176575,527.139526 975.070984,525.385864 976.331604,525.147156 
	C978.905029,524.659729 981.635315,525.001099 984.694275,525.001099 
	C984.694275,518.207581 984.694275,511.455475 984.694275,504.352844 
	C997.149780,504.352844 1009.223816,504.352844 1021.700867,504.352844 
	C1021.700867,510.814331 1021.700867,517.561096 1021.700867,525.000122 
	C1025.667480,525.000122 1029.255249,525.117188 1032.831543,524.963257 
	C1035.720459,524.838867 1037.101807,525.696533 1037.051147,528.884766 
	C1036.906128,538.036560 1037.000000,547.192017 1037.000000,556.744873 
	C1032.132324,556.744873 1027.389038,556.744873 1022.007507,556.744873 
	C1022.007507,565.217651 1021.663330,573.334595 1022.287231,581.376343 
	C1022.417786,583.059387 1025.918213,585.126770 1028.225708,585.822449 
	C1030.788086,586.594727 1033.762817,585.999146 1036.776611,585.999146 
	C1036.776611,596.736938 1036.776611,607.144653 1036.776611,617.999939 
	C1030.047729,617.999939 1023.432434,617.999939 1016.351929,617.999146 
z"/>
<path fill="#FFFFFF" opacity="1.000000" stroke="none" 
	d="
M961.835327,617.999878 
	C950.052490,618.000000 938.756653,618.000000 927.232056,618.000000 
	C927.232056,587.268005 927.232056,556.864868 927.232056,526.230591 
	C939.735291,526.230591 952.139771,526.230591 965.000000,526.230591 
	C965.000000,527.778748 965.000000,529.226196 965.000000,530.673706 
	C965.000000,558.337830 965.019104,586.002075 964.955444,613.666016 
	C964.951355,615.449036 966.285156,618.452209 961.835327,617.999878 
z"/>
<path fill="#FFFFFF" opacity="1.000000" stroke="none" 
	d="
M960.654297,487.160217 
	C967.912048,493.167603 968.956604,501.687195 966.181274,508.273315 
	C962.676086,516.591492 956.022339,519.864197 947.241089,520.070374 
	C940.241882,520.234619 934.107666,518.917053 929.048523,513.609436 
	C922.676331,506.924255 922.469543,490.169769 935.324646,485.049469 
	C943.881653,481.641205 952.349792,481.892487 960.654297,487.160217 
z"/>
<path fill="#000000" opacity="1.000000" stroke="none" 
	d="
M437.252747,422.640930 
	C441.073090,432.387482 444.676147,441.796509 448.299530,451.258636 
	C381.669312,476.506165 315.369751,501.628387 248.306961,527.039795 
	C244.303543,519.196045 235.378937,519.928589 228.172119,517.348267 
	C226.070557,516.595825 221.449783,518.644653 220.123459,520.754517 
	C216.121597,527.120850 209.804428,532.682983 211.183380,541.534119 
	C207.145828,542.788696 203.393295,544.119446 199.542770,545.040466 
	C198.522156,545.284607 196.427979,544.564758 196.129074,543.786987 
	C188.317245,523.461365 180.687820,503.065704 173.004852,482.690460 
	C164.304016,459.615875 155.581085,436.549652 146.869537,413.479126 
	C145.981369,411.127014 145.105621,408.770203 144.177734,406.291718 
	C148.915970,404.564270 153.558456,402.871735 158.243607,401.163635 
	C161.953308,406.074951 166.866226,408.868195 173.289734,409.100708 
	C174.564743,409.146851 175.711655,410.794464 177.063782,411.154022 
	C178.644089,411.574219 180.406281,411.603455 182.051514,411.433624 
	C188.038940,410.815552 188.798538,404.823639 191.661591,401.231659 
	C193.839432,398.499329 194.414108,394.181458 194.842743,390.469818 
	C195.132843,387.957855 195.913483,386.822906 198.139084,385.984222 
	C226.757202,375.200043 255.342056,364.327545 283.954285,353.527649 
	C307.476013,344.649200 331.031586,335.860413 354.555542,326.987823 
	C368.032440,321.904694 381.476227,316.733643 395.420837,311.416870 
	C398.828613,320.478149 402.066528,329.115570 405.324493,337.745422 
	C414.034576,360.816986 422.765137,383.880890 431.459320,406.958435 
	C433.377869,412.050873 435.179810,417.187256 437.252747,422.640930 
M376.033691,384.273895 
	C374.942352,380.942932 373.851013,377.611938 372.348450,373.025757 
	C356.046326,379.140167 339.883331,385.202362 323.358978,391.400116 
	C327.371979,401.902954 331.067963,411.576141 334.869354,421.525116 
	C337.120575,420.419281 338.494781,419.593811 339.971313,419.042267 
	C353.468658,414.000458 366.963287,408.949402 380.513855,404.053680 
	C382.799530,403.227905 383.189514,402.614960 382.151367,400.247803 
	C379.971130,395.276398 378.320221,390.072845 376.033691,384.273895 
M309.276306,431.966492 
	C314.856567,429.712921 320.436829,427.459320 326.286896,425.096771 
	C325.007812,421.710815 323.774384,418.445740 322.206024,414.293976 
	C300.736908,422.410950 279.313690,430.510559 257.554932,438.737061 
	C259.176239,442.468536 260.622772,445.797791 262.079468,449.150482 
	C277.894897,443.303497 293.181854,437.651886 309.276306,431.966492 
M318.957977,404.615692 
	C318.294891,402.988525 317.632782,401.360931 316.968567,399.734253 
	C315.799591,396.871490 314.593933,395.126556 310.786560,396.866882 
	C304.692566,399.652374 298.237579,401.642181 291.959076,404.031250 
	C278.274963,409.238312 264.605927,414.484985 250.526688,419.870026 
	C252.091629,423.476898 253.536194,426.806366 255.031769,430.253357 
	C271.151917,424.135956 286.698273,418.287415 302.201294,412.326202 
	C307.838989,410.158417 313.373413,407.722076 318.957977,404.615692 
M202.031342,499.314026 
	C194.253433,478.786957 186.475525,458.259888 178.676697,437.677612 
	C176.388107,438.361450 174.883621,438.962891 173.321396,439.248901 
	C168.955597,440.048187 168.484451,442.275696 169.964569,446.180145 
	C177.100876,465.005157 183.977295,483.928741 191.126129,502.748871 
	C191.527573,503.805664 194.223099,505.171875 194.682648,504.828888 
	C197.155075,502.983612 202.294937,505.301544 202.031342,499.314026 
M283.277649,450.965973 
	C277.158936,453.152618 271.040222,455.339264 264.632812,457.629089 
	C265.967682,461.220184 267.184875,464.494751 268.548096,468.162109 
	C269.747406,467.896973 271.023132,467.777466 272.174805,467.335022 
	C282.773804,463.263123 293.309143,459.022247 303.946991,455.055756 
	C314.523132,451.112274 314.565552,451.226013 309.337708,440.837463 
	C300.907532,444.063354 292.437012,447.304688 283.277649,450.965973 
M196.947876,444.566956 
	C194.911545,445.402069 192.875198,446.237213 190.650909,447.149445 
	C192.680984,452.125366 194.482193,456.540314 196.275177,460.935120 
	C207.840729,457.240814 208.079575,456.652069 202.537842,446.024414 
	C202.463303,445.881470 202.246811,445.789001 202.219040,445.648712 
	C201.578476,442.411407 199.657333,442.937500 196.947876,444.566956 
M211.959167,469.648834 
	C208.926559,465.931427 206.075256,469.048248 203.329910,470.082520 
	C202.308899,470.467133 200.926224,472.345490 201.146088,473.149536 
	C202.150345,476.821716 203.530960,480.415405 205.110855,483.884979 
	C205.423477,484.571503 207.380249,485.112122 208.280121,484.815094 
	C210.951874,483.933197 213.474640,482.599854 216.131622,481.408905 
	C214.693451,477.599274 213.346451,474.031128 211.959167,469.648834 
M219.907272,493.389130 
	C216.668900,493.900085 213.430511,494.411011 209.284485,495.065155 
	C210.965820,499.975220 212.334442,504.334869 214.024353,508.566162 
	C214.321869,509.311127 216.160767,510.123474 216.949173,509.866364 
	C219.755951,508.950867 222.416534,507.587128 225.295959,506.321198 
	C223.595291,501.977631 222.031418,497.983490 219.907272,493.389130 
M194.488785,424.991180 
	C193.647949,422.965179 192.807114,420.939178 191.884979,418.717255 
	C188.179276,420.095123 185.001129,421.276855 181.565689,422.554230 
	C183.326614,427.388611 184.892471,431.687439 186.428101,435.903259 
	C196.172974,435.947998 198.084137,433.578156 194.488785,424.991180 
z"/>
<path fill="#000000" opacity="1.000000" stroke="none" 
	d="
M473.000000,502.000000 
	C473.000000,536.798340 473.000000,571.096680 473.000000,606.197327 
	C401.842529,606.197327 330.868317,606.197327 259.323334,606.197327 
	C257.762695,600.232178 253.406097,595.721924 246.950272,592.871094 
	C244.810944,591.926392 243.580536,589.699402 240.493774,589.867432 
	C233.321182,590.257874 222.764832,597.274292 219.914352,603.868591 
	C219.334793,605.209412 217.496323,606.705566 216.099030,606.858521 
	C212.323135,607.271667 208.472290,606.999939 204.000000,606.999939 
	C204.000000,602.958435 204.000000,599.036621 204.000000,595.114807 
	C204.000000,584.786621 204.000000,574.458435 204.000000,564.130249 
	C204.000000,555.311157 204.286057,554.976440 213.756897,553.064697 
	C213.756897,557.521423 213.756897,561.922363 213.756897,566.661621 
	C217.508286,566.661621 220.914413,566.661621 225.000000,566.661621 
	C225.000000,557.990906 224.989319,549.071960 225.004837,540.153015 
	C225.011856,536.120728 223.980316,531.450195 229.517532,530.061707 
	C234.359558,528.847595 238.130051,531.657654 240.593307,537.910522 
	C238.254852,537.910522 235.973877,537.910522 233.006836,537.910522 
	C233.006836,542.132812 232.793137,546.228271 233.158783,550.271362 
	C233.248932,551.268066 235.120804,552.646240 236.356171,552.878723 
	C238.606033,553.302002 240.992554,552.998962 243.589325,552.998962 
	C243.729736,552.199280 244.107956,551.383057 243.961014,550.675964 
	C242.441925,543.365906 245.517441,539.938538 252.591705,537.570374 
	C269.585205,531.881592 286.243317,525.193909 303.071167,519.002747 
	C304.845825,518.349854 306.848419,518.048950 308.746979,518.041870 
	C327.404114,517.972473 346.061615,517.999939 364.718994,517.999878 
	C365.678741,517.999878 366.638489,517.999878 367.432526,517.999878 
	C367.719910,517.342529 367.951263,517.059814 367.951630,516.776855 
	C367.967560,505.158752 369.232483,507.149841 358.235779,507.016602 
	C350.993591,506.928802 343.749451,507.000000 336.394562,506.372192 
	C381.651459,489.270142 426.908325,472.168060 473.000000,454.750549 
	C473.000000,471.245605 473.000000,486.372803 473.000000,502.000000 
M407.499878,506.000000 
	C397.403748,506.000000 387.307587,506.000000 377.286835,506.000000 
	C377.286835,516.644775 377.286835,526.715698 377.286835,536.714355 
	C394.643982,536.714355 411.712891,536.714355 428.713196,536.714355 
	C428.713196,526.355164 428.713196,516.284241 428.713196,506.000000 
	C421.785217,506.000000 415.142517,506.000000 407.499878,506.000000 
M367.995789,528.678955 
	C366.559692,528.119324 365.126068,527.079773 363.687103,527.072266 
	C343.417938,526.965942 323.148010,526.994812 302.878296,527.012451 
	C301.618378,527.013550 300.358612,527.193604 299.318939,527.273499 
	C299.318939,531.056946 299.318939,534.457886 299.318939,537.755371 
	C322.328857,537.755371 345.019043,537.755371 367.999725,537.755371 
	C367.999725,534.888184 367.999725,532.261963 367.995789,528.678955 
M310.517120,558.000000 
	C322.613800,558.000000 334.710480,558.000000 346.706940,558.000000 
	C346.706940,554.008911 346.706940,550.601929 346.706940,547.289917 
	C330.673340,547.289917 314.934357,547.289917 299.294128,547.289917 
	C299.294128,550.993103 299.294128,554.400146 299.294128,558.000000 
	C302.898712,558.000000 306.210968,558.000000 310.517120,558.000000 
M244.945969,564.757507 
	C241.354538,564.439026 237.763107,564.120544 234.286606,563.812256 
	C234.286606,569.385620 234.286606,574.094055 234.286606,578.746826 
	C237.961594,578.746826 241.343903,578.746826 244.996185,578.746826 
	C244.996185,574.236572 244.996185,569.976379 244.945969,564.757507 
z"/>
<path fill="#000000" opacity="1.000000" stroke="none" 
	d="
M560.720398,573.997192 
	C566.033875,575.107666 566.741394,578.870483 565.851257,582.718689 
	C565.077332,586.064819 562.229553,587.250122 558.640747,587.066040 
	C553.563110,586.805603 548.462158,587.000000 543.191040,587.000000 
	C543.191040,582.205139 543.191040,577.818970 543.191040,572.582642 
	C549.036133,573.064880 554.664124,573.529236 560.720398,573.997192 
z"/>
<path fill="#000000" opacity="1.000000" stroke="none" 
	d="
M543.002136,535.183350 
	C543.433594,534.144165 543.851135,533.110474 544.294495,533.099182 
	C549.096497,532.977356 553.915771,532.794922 558.703247,533.081482 
	C562.481018,533.307556 563.997864,536.643982 563.749878,539.545837 
	C563.557800,541.793335 561.482605,545.267761 559.636780,545.720764 
	C554.490356,546.983826 549.027954,546.959106 543.000244,547.505432 
	C543.000244,543.134827 543.000244,539.399170 543.002136,535.183350 
z"/>
<path fill="#000000" opacity="1.000000" stroke="none" 
	d="
M770.999634,567.469849 
	C770.743347,573.331787 772.212036,579.082031 767.156128,583.429932 
	C762.320740,587.588196 754.912292,586.873352 752.159424,581.214966 
	C749.232971,575.199951 748.714478,568.717163 752.189392,562.669678 
	C754.194641,559.179993 757.532288,556.356384 761.749939,557.163330 
	C766.832153,558.135620 770.125305,561.663879 770.999634,567.469849 
z"/>
<path fill="#000000" opacity="1.000000" stroke="none" 
	d="
M649.003784,565.392944 
	C651.725403,558.755859 657.843445,554.477234 663.900940,559.035217 
	C665.256531,560.055237 666.366577,561.490173 667.347412,562.902405 
	C669.784180,566.410950 669.729431,577.882080 667.215576,581.195740 
	C664.591125,584.655151 660.943237,587.464661 656.730408,585.757141 
	C653.692505,584.525757 650.299072,581.503662 649.315857,578.534607 
	C648.038879,574.678528 648.995972,570.082581 649.003784,565.392944 
z"/>
<path fill="#FFFFFF" opacity="1.000000" stroke="none" 
	d="
M376.242828,384.619263 
	C378.320221,390.072845 379.971130,395.276398 382.151367,400.247803 
	C383.189514,402.614960 382.799530,403.227905 380.513855,404.053680 
	C366.963287,408.949402 353.468658,414.000458 339.971313,419.042267 
	C338.494781,419.593811 337.120575,420.419281 334.869354,421.525116 
	C331.067963,411.576141 327.371979,401.902954 323.358978,391.400116 
	C339.883331,385.202362 356.046326,379.140167 372.348450,373.025757 
	C373.851013,377.611938 374.942352,380.942932 376.242828,384.619263 
z"/>
<path fill="#FFFFFF" opacity="1.000000" stroke="none" 
	d="
M308.872559,431.983398 
	C293.181854,437.651886 277.894897,443.303497 262.079468,449.150482 
	C260.622772,445.797791 259.176239,442.468536 257.554932,438.737061 
	C279.313690,430.510559 300.736908,422.410950 322.206024,414.293976 
	C323.774384,418.445740 325.007812,421.710815 326.286896,425.096771 
	C320.436829,427.459320 314.856567,429.712921 308.872559,431.983398 
z"/>
<path fill="#FFFFFF" opacity="1.000000" stroke="none" 
	d="
M318.956482,405.011963 
	C313.373413,407.722076 307.838989,410.158417 302.201294,412.326202 
	C286.698273,418.287415 271.151917,424.135956 255.031769,430.253357 
	C253.536194,426.806366 252.091629,423.476898 250.526688,419.870026 
	C264.605927,414.484985 278.274963,409.238312 291.959076,404.031250 
	C298.237579,401.642181 304.692566,399.652374 310.786560,396.866882 
	C314.593933,395.126556 315.799591,396.871490 316.968567,399.734253 
	C317.632782,401.360931 318.294891,402.988525 318.956482,405.011963 
z"/>
<path fill="#FFFFFF" opacity="1.000000" stroke="none" 
	d="
M202.250839,499.646973 
	C202.294937,505.301544 197.155075,502.983612 194.682648,504.828888 
	C194.223099,505.171875 191.527573,503.805664 191.126129,502.748871 
	C183.977295,483.928741 177.100876,465.005157 169.964569,446.180145 
	C168.484451,442.275696 168.955597,440.048187 173.321396,439.248901 
	C174.883621,438.962891 176.388107,438.361450 178.676697,437.677612 
	C186.475525,458.259888 194.253433,478.786957 202.250839,499.646973 
z"/>
<path fill="#FFFFFF" opacity="1.000000" stroke="none" 
	d="
M283.622070,450.755981 
	C292.437012,447.304688 300.907532,444.063354 309.337708,440.837463 
	C314.565552,451.226013 314.523132,451.112274 303.946991,455.055756 
	C293.309143,459.022247 282.773804,463.263123 272.174805,467.335022 
	C271.023132,467.777466 269.747406,467.896973 268.548096,468.162109 
	C267.184875,464.494751 265.967682,461.220184 264.632812,457.629089 
	C271.040222,455.339264 277.158936,453.152618 283.622070,450.755981 
z"/>
<path fill="#FFFFFF" opacity="1.000000" stroke="none" 
	d="
M197.241150,444.303833 
	C199.657333,442.937500 201.578476,442.411407 202.219040,445.648712 
	C202.246811,445.789001 202.463303,445.881470 202.537842,446.024414 
	C208.079575,456.652069 207.840729,457.240814 196.275177,460.935120 
	C194.482193,456.540314 192.680984,452.125366 190.650909,447.149445 
	C192.875198,446.237213 194.911545,445.402069 197.241150,444.303833 
z"/>
<path fill="#FFFFFF" opacity="1.000000" stroke="none" 
	d="
M211.979309,470.055908 
	C213.346451,474.031128 214.693451,477.599274 216.131622,481.408905 
	C213.474640,482.599854 210.951874,483.933197 208.280121,484.815094 
	C207.380249,485.112122 205.423477,484.571503 205.110855,483.884979 
	C203.530960,480.415405 202.150345,476.821716 201.146088,473.149536 
	C200.926224,472.345490 202.308899,470.467133 203.329910,470.082520 
	C206.075256,469.048248 208.926559,465.931427 211.979309,470.055908 
z"/>
<path fill="#FFFFFF" opacity="1.000000" stroke="none" 
	d="
M220.187408,493.689240 
	C222.031418,497.983490 223.595291,501.977631 225.295959,506.321198 
	C222.416534,507.587128 219.755951,508.950867 216.949173,509.866364 
	C216.160767,510.123474 214.321869,509.311127 214.024353,508.566162 
	C212.334442,504.334869 210.965820,499.975220 209.284485,495.065155 
	C213.430511,494.411011 216.668900,493.900085 220.187408,493.689240 
z"/>
<path fill="#FFFFFF" opacity="1.000000" stroke="none" 
	d="
M194.727142,425.313721 
	C198.084137,433.578156 196.172974,435.947998 186.428101,435.903259 
	C184.892471,431.687439 183.326614,427.388611 181.565689,422.554230 
	C185.001129,421.276855 188.179276,420.095123 191.884979,418.717255 
	C192.807114,420.939178 193.647949,422.965179 194.727142,425.313721 
z"/>
<path fill="#FFFFFF" opacity="1.000000" stroke="none" 
	d="
M407.999847,506.000000 
	C415.142517,506.000000 421.785217,506.000000 428.713196,506.000000 
	C428.713196,516.284241 428.713196,526.355164 428.713196,536.714355 
	C411.712891,536.714355 394.643982,536.714355 377.286835,536.714355 
	C377.286835,526.715698 377.286835,516.644775 377.286835,506.000000 
	C387.307587,506.000000 397.403748,506.000000 407.999847,506.000000 
z"/>
<path fill="#FFFFFF" opacity="1.000000" stroke="none" 
	d="
M367.997742,529.157349 
	C367.999725,532.261963 367.999725,534.888184 367.999725,537.755371 
	C345.019043,537.755371 322.328857,537.755371 299.318939,537.755371 
	C299.318939,534.457886 299.318939,531.056946 299.318939,527.273499 
	C300.358612,527.193604 301.618378,527.013550 302.878296,527.012451 
	C323.148010,526.994812 343.417938,526.965942 363.687103,527.072266 
	C365.126068,527.079773 366.559692,528.119324 367.997742,529.157349 
z"/>
<path fill="#FFFFFF" opacity="1.000000" stroke="none" 
	d="
M310.020142,558.000000 
	C306.210968,558.000000 302.898712,558.000000 299.294128,558.000000 
	C299.294128,554.400146 299.294128,550.993103 299.294128,547.289917 
	C314.934357,547.289917 330.673340,547.289917 346.706940,547.289917 
	C346.706940,550.601929 346.706940,554.008911 346.706940,558.000000 
	C334.710480,558.000000 322.613800,558.000000 310.020142,558.000000 
z"/>
<path fill="#FFFFFF" opacity="1.000000" stroke="none" 
	d="
M244.971069,565.236816 
	C244.996185,569.976379 244.996185,574.236572 244.996185,578.746826 
	C241.343903,578.746826 237.961594,578.746826 234.286606,578.746826 
	C234.286606,574.094055 234.286606,569.385620 234.286606,563.812256 
	C237.763107,564.120544 241.354538,564.439026 244.971069,565.236816 
z"/>
</svg>