<?xml version="1.0" encoding="UTF-8" standalone="no" ?>
<!DOCTYPE svg PUBLIC "-//W3C//DTD SVG 1.1//EN" "http://www.w3.org/Graphics/SVG/1.1/DTD/svg11.dtd">
<svg xmlns="http://www.w3.org/2000/svg" xmlns:xlink="http://www.w3.org/1999/xlink" version="1.1" width="80" height="80" viewBox="0 0 100 100" xml:space="preserve">
<desc>Created with Fabric.js 4.6.0</desc>
<defs>
</defs>
<g transform="matrix(0.1 0 0 0.1 28.38 45.95)" id="iuyYNsszzkA7qEE9cosEJ"  >
<path style="stroke: none; stroke-width: 1; stroke-dasharray: none; stroke-linecap: butt; stroke-dashoffset: 0; stroke-linejoin: miter; stroke-miterlimit: 4; fill: rgb(255,255,255); fill-rule: nonzero; opacity: 1;" vector-effect="non-scaling-stroke"  transform=" translate(-339.33, -453.91)" d="M 325.337036 325.265625 C 339.010529 320.03476 352.345642 315.019318 365.691864 310.033691 C 383.082855 303.53714 400.459229 297.000031 417.892792 290.619476 C 423.264191 288.653564 425.097504 289.835968 426.99826 294.925476 C 435.680603 318.173981 444.442352 341.392914 453.20575 364.611084 C 460.442902 383.785645 467.737183 402.93866 474.975555 422.112762 C 477.805115 429.608063 480.551117 437.134827 483.471191 445.014282 C 491.327179 445.014282 499.440094 445.014282 507.941254 445.014282 C 507.941254 464.071411 507.941254 482.809479 507.941254 502 C 526.606812 502 544.886292 501.746002 563.151978 502.137543 C 569.557739 502.274841 576.135437 503.302917 582.279846 505.122345 C 604.332825 511.652435 606.802795 537.105286 596.092468 551.186768 C 593.731262 554.291138 589.884644 556.265747 587.379395 558.242065 C 590.853516 561.301636 595.263306 564.409973 598.70282 568.36261 C 608.267029 579.353638 606.108276 600.82312 594.507751 609.9776 C 587.494446 615.512085 579.198914 617.720886 570.612 617.882751 C 550.958069 618.253235 531.292236 618.059998 511.631622 617.989685 C 425.071198 617.680298 338.510895 617.333313 251.950546 617.000305 C 251.137955 616.997192 250.325348 616.999878 250.692841 616.999878 C 248.424744 612.228394 246.760757 607.98053 244.395416 604.167664 C 243.59581 602.878662 241.024277 602.115662 239.255966 602.104004 C 232.878448 602.061768 229.303955 607.189209 228.811066 616.752197 C 197.071808 616.752197 165.318405 616.752197 133 616.752197 C 133 611.853638 132.748047 606.903992 133.048279 601.988098 C 133.875656 588.441101 131.865311 575.653442 126.664848 562.868164 C 115.628471 535.735352 105.684029 508.157806 95.32972 480.748291 C 88.257805 462.027802 81.230652 443.290314 74.259033 424.532318 C 73.821205 423.354309 74.040802 421.931946 73.945549 420.486847 C 104.027626 409.252167 133.988312 398.062836 164.498047 386.668457 C 166.693695 393.585358 169.785156 400.092529 178.586182 397.6586 C 184.091202 396.1362 184.914032 390.408691 181.966507 379.724426 C 195.630096 374.49646 209.303696 369.220825 223.009674 364.030731 C 243.522766 356.263031 264.062622 348.56604 284.583344 340.818573 C 298.063812 335.729095 311.53067 330.603638 325.337036 325.265625 M 437.035431 422.303406 C 435.17981 417.187256 433.377869 412.050873 431.45932 406.958435 C 422.765137 383.88089 414.034576 360.816986 405.324493 337.745422 C 402.066528 329.11557 398.828613 320.478149 395.420837 311.41687 C 381.476227 316.733643 368.03244 321.904694 354.555542 326.987823 C 331.031586 335.860413 307.476013 344.6492 283.954285 353.527649 C 255.342056 364.327545 226.757202 375.200043 198.139084 385.984222 C 195.913483 386.822906 195.132843 387.957855 194.842743 390.469818 C 194.414108 394.181458 193.839432 398.499329 191.661591 401.231659 C 188.798538 404.823639 188.03894 410.815552 182.051514 411.433624 C 180.406281 411.603455 178.644089 411.574219 177.063782 411.154022 C 175.711655 410.794464 174.564743 409.146851 173.289734 409.100708 C 166.866226 408.868195 161.953308 406.074951 158.243607 401.163635 C 153.558456 402.871735 148.91597 404.56427 144.177734 406.291718 C 145.105621 408.770203 145.981369 411.127014 146.869537 413.479126 C 155.581085 436.549652 164.304016 459.615875 173.004852 482.69046 C 180.68782 503.065704 188.317245 523.461365 196.129074 543.786987 C 196.427979 544.564758 198.522156 545.284607 199.54277 545.040466 C 203.393295 544.119446 207.145828 542.788696 211.18338 541.534119 C 209.804428 532.682983 216.121597 527.12085 220.123459 520.754517 C 221.449783 518.644653 226.070557 516.595825 228.172119 517.348267 C 235.378937 519.928589 244.303543 519.196045 248.306961 527.039795 C 315.369751 501.628387 381.669312 476.506165 448.29953 451.258636 C 444.676147 441.796509 441.07309 432.387482 437.035431 422.303406 M 473 501.5 C 473 486.372803 473 471.245605 473 454.750549 C 426.908325 472.16806 381.651459 489.270142 336.394562 506.372192 C 343.749451 507 350.993591 506.928802 358.235779 507.016602 C 369.232483 507.149841 367.96756 505.158752 367.95163 516.776855 C 367.951263 517.059814 367.71991 517.342529 367.432526 517.999878 C 366.638489 517.999878 365.678741 517.999878 364.718994 517.999878 C 346.061615 517.999939 327.404114 517.972473 308.746979 518.04187 C 306.848419 518.04895 304.845825 518.349854 303.071167 519.002747 C 286.243317 525.193909 269.585205 531.881592 252.591705 537.570374 C 245.517441 539.938538 242.441925 543.365906 243.961014 550.675964 C 244.107956 551.383057 243.729736 552.19928 243.589325 552.998962 C 240.992554 552.998962 238.606033 553.302002 236.356171 552.878723 C 235.120804 552.64624 233.248932 551.268066 233.158783 550.271362 C 232.793137 546.228271 233.006836 542.132812 233.006836 537.910522 C 235.973877 537.910522 238.254852 537.910522 240.593307 537.910522 C 238.130051 531.657654 234.359558 528.847595 229.517532 530.061707 C 223.980316 531.450195 225.011856 536.120728 225.004837 540.153015 C 224.989319 549.07196 225 557.990906 225 566.661621 C 220.914413 566.661621 217.508286 566.661621 213.756897 566.661621 C 213.756897 561.922363 213.756897 557.521423 213.756897 553.064697 C 204.286057 554.97644 204 555.311157 204 564.130249 C 204 574.458435 204 584.786621 204 595.114807 C 204 599.036621 204 602.958435 204 606.999939 C 208.47229 606.999939 212.323135 607.271667 216.09903 606.858521 C 217.496323 606.705566 219.334793 605.209412 219.914352 603.868591 C 222.764832 597.274292 233.321182 590.257874 240.493774 589.867432 C 243.580536 589.699402 244.810944 591.926392 246.950272 592.871094 C 253.406097 595.721924 257.762695 600.232178 259.323334 606.197327 C 330.868317 606.197327 401.842529 606.197327 473 606.197327 C 473 571.09668 473 536.79834 473 501.5 M 560.292114 573.993591 C 554.664124 573.529236 549.036133 573.06488 543.19104 572.582642 C 543.19104 577.81897 543.19104 582.205139 543.19104 587 C 548.462158 587 553.56311 586.805603 558.640747 587.06604 C 562.229553 587.250122 565.077332 586.064819 565.851257 582.718689 C 566.741394 578.870483 566.033875 575.107666 560.292114 573.993591 M 543.000244 535.663574 C 543.000244 539.39917 543.000244 543.134827 543.000244 547.505432 C 549.027954 546.959106 554.490356 546.983826 559.63678 545.720764 C 561.482605 545.267761 563.5578 541.793335 563.749878 539.545837 C 563.997864 536.643982 562.481018 533.307556 558.703247 533.081482 C 553.915771 532.794922 549.096497 532.977356 544.294495 533.099182 C 543.851135 533.110474 543.433594 534.144165 543.000244 535.663574 z" stroke-linecap="round" />
</g>
<g transform="matrix(0.1 0 0 0.1 81.53 56.32)" id="VR9TWQsz3GAROSoiNru6w"  >
<path style="stroke: none; stroke-width: 1; stroke-dasharray: none; stroke-linecap: butt; stroke-dashoffset: 0; stroke-linejoin: miter; stroke-miterlimit: 4; fill: rgb(255,255,255); fill-rule: nonzero; opacity: 1;" vector-effect="non-scaling-stroke"  transform=" translate(-870.81, -557.66)" d="M 908.739197 600.243286 C 913.174316 605.961365 917.348694 611.422729 922.375916 618 C 914.979553 618 909.085022 618 903.190552 618 C 895.69165 618 888.189453 617.870728 880.695435 618.0625 C 877.613342 618.141357 876.095398 616.891052 874.598938 614.288635 C 870.031555 606.345459 865.132385 598.591003 860.256653 590.829529 C 859.463013 589.566162 858.132568 588.640076 856.043335 586.551575 C 856.043335 597.96167 856.043335 607.73053 856.043335 617.746765 C 843.644958 617.746765 831.574036 617.746765 819.250732 617.746765 C 819.250732 577.641113 819.250732 537.573364 819.250732 497.252563 C 831.356384 497.252563 843.427368 497.252563 855.84668 497.252563 C 855.84668 516.352417 855.84668 535.417358 855.84668 554.4823 C 856.511963 555.03125 857.177246 555.580261 857.842529 556.129272 C 858.687805 554.459839 859.398071 552.704102 860.401184 551.13562 C 865.257202 543.542236 870.176392 535.989075 875.107605 528.444092 C 876.65863 526.070923 878.444946 524.785034 881.76886 524.869873 C 894.414062 525.192505 907.072266 525 920.941772 526.126465 C 909.711304 541.38031 898.480835 556.634155 887.110901 572.077454 C 894.104858 581.212585 901.291626 590.599609 908.739197 600.243286 z" stroke-linecap="round" />
</g>
<g transform="matrix(0.1 0 0 0.1 70.5 57.74)" id="fZFnNx4wiBVCASXkvkp2J"  >
<path style="stroke: none; stroke-width: 1; stroke-dasharray: none; stroke-linecap: butt; stroke-dashoffset: 0; stroke-linejoin: miter; stroke-miterlimit: 4; fill: rgb(255,255,255); fill-rule: nonzero; opacity: 1;" vector-effect="non-scaling-stroke"  transform=" translate(-760.5, -571.82)" d="M 805.312622 550.768921 C 812.461548 568.260071 810.423767 593.060913 796.769714 605.638184 C 783.827026 617.560181 768.445312 620.750671 751.198853 618.16748 C 735.169434 615.766602 723.171204 607.890442 716.331543 593.474243 C 708.079468 576.081177 710.568604 551.279053 725.176575 537.441467 C 733.38324 529.667542 743.380005 525.745178 754.833984 524.866821 C 764.519226 524.124146 773.585632 525.049072 782.65448 528.811157 C 793.14209 533.161865 800.510193 540.227051 805.312622 550.768921 M 770.999268 567.027161 C 770.125305 561.663879 766.832153 558.13562 761.749939 557.16333 C 757.532288 556.356384 754.194641 559.179993 752.189392 562.669678 C 748.714478 568.717163 749.232971 575.199951 752.159424 581.214966 C 754.912292 586.873352 762.32074 587.588196 767.156128 583.429932 C 772.212036 579.082031 770.743347 573.331787 770.999268 567.027161 z" stroke-linecap="round" />
</g>
<g transform="matrix(0.1 0 0 0.1 60.31 57.75)" id="En4_571vxnyEgMCgluitq"  >
<path style="stroke: none; stroke-width: 1; stroke-dasharray: none; stroke-linecap: butt; stroke-dashoffset: 0; stroke-linejoin: miter; stroke-miterlimit: 4; fill: rgb(255,255,255); fill-rule: nonzero; opacity: 1;" vector-effect="non-scaling-stroke"  transform=" translate(-658.6, -571.95)" d="M 615.639282 546.865723 C 624.528076 532.716797 637.205505 526.122681 653.315613 524.908386 C 665.188354 524.01355 676.169434 525.637756 686.597351 531.828308 C 697.05719 538.03772 703.518738 547.085632 705.836304 558.575867 C 709.085754 574.686218 707.799316 590.407715 696.653992 603.676819 C 690.098816 611.481201 681.202209 615.997314 671.357239 617.881226 C 657.470276 620.538574 643.881165 619.574646 631.327393 612.04657 C 620.447266 605.522156 613.678589 596.088989 611.018738 583.741272 C 608.288025 571.064697 610.297424 558.902405 615.639282 546.865723 M 648.991455 565.805115 C 648.995972 570.082581 648.038879 574.678528 649.315857 578.534607 C 650.299072 581.503662 653.692505 584.525757 656.730408 585.757141 C 660.943237 587.464661 664.591125 584.655151 667.215576 581.19574 C 669.729431 577.88208 669.78418 566.41095 667.347412 562.902405 C 666.366577 561.490173 665.256531 560.055237 663.90094 559.035217 C 657.843445 554.477234 651.725403 558.755859 648.991455 565.805115 z" stroke-linecap="round" />
</g>
<g transform="matrix(0.1 0 0 0.1 94.95 56.67)" id="oc6gIr3h5Sk23jmddMWiI"  >
<path style="stroke: none; stroke-width: 1; stroke-dasharray: none; stroke-linecap: butt; stroke-dashoffset: 0; stroke-linejoin: miter; stroke-miterlimit: 4; fill: rgb(255,255,255); fill-rule: nonzero; opacity: 1;" vector-effect="non-scaling-stroke"  transform=" translate(-1005.02, -561.18)" d="M 1016.351929 617.999146 C 1010.038147 615.943481 1003.822571 614.57428 998.421265 611.683594 C 988.728943 606.496277 985.715637 596.898376 985.123169 586.75061 C 984.55365 576.995422 985 567.180908 985 557.001465 C 980.872375 557.001465 977.123413 557.001465 973.00116 557.001465 C 973.00116 547.155884 972.892517 537.698059 973.146729 528.25 C 973.176575 527.139526 975.070984 525.385864 976.331604 525.147156 C 978.905029 524.659729 981.635315 525.001099 984.694275 525.001099 C 984.694275 518.207581 984.694275 511.455475 984.694275 504.352844 C 997.14978 504.352844 1009.223816 504.352844 1021.700867 504.352844 C 1021.700867 510.814331 1021.700867 517.561096 1021.700867 525.000122 C 1025.66748 525.000122 1029.255249 525.117188 1032.831543 524.963257 C 1035.720459 524.838867 1037.101807 525.696533 1037.051147 528.884766 C 1036.906128 538.03656 1037 547.192017 1037 556.744873 C 1032.132324 556.744873 1027.389038 556.744873 1022.007507 556.744873 C 1022.007507 565.217651 1021.66333 573.334595 1022.287231 581.376343 C 1022.417786 583.059387 1025.918213 585.12677 1028.225708 585.822449 C 1030.788086 586.594727 1033.762817 585.999146 1036.776611 585.999146 C 1036.776611 596.736938 1036.776611 607.144653 1036.776611 617.999939 C 1030.047729 617.999939 1023.432434 617.999939 1016.351929 617.999146 z" stroke-linecap="round" />
</g>
<g transform="matrix(0.1 0 0 0.1 89.07 57.77)" id="C0RKJaDS-0gpXNIOXeuW4"  >
<path style="stroke: none; stroke-width: 1; stroke-dasharray: none; stroke-linecap: butt; stroke-dashoffset: 0; stroke-linejoin: miter; stroke-miterlimit: 4; fill: rgb(255,255,255); fill-rule: nonzero; opacity: 1;" vector-effect="non-scaling-stroke"  transform=" translate(-946.19, -572.14)" d="M 961.835327 617.999878 C 950.05249 618 938.756653 618 927.232056 618 C 927.232056 587.268005 927.232056 556.864868 927.232056 526.230591 C 939.735291 526.230591 952.139771 526.230591 965 526.230591 C 965 527.778748 965 529.226196 965 530.673706 C 965 558.33783 965.019104 586.002075 964.955444 613.666016 C 964.951355 615.449036 966.285156 618.452209 961.835327 617.999878 z" stroke-linecap="round" />
</g>
<g transform="matrix(0.1 0 0 0.1 89.07 50.7)" id="I0qkX4YEbqcVpMmSa5qrf"  >
<path style="stroke: none; stroke-width: 1; stroke-dasharray: none; stroke-linecap: butt; stroke-dashoffset: 0; stroke-linejoin: miter; stroke-miterlimit: 4; fill: rgb(255,255,255); fill-rule: nonzero; opacity: 1;" vector-effect="non-scaling-stroke"  transform=" translate(-946.19, -501.44)" d="M 960.654297 487.160217 C 967.912048 493.167603 968.956604 501.687195 966.181274 508.273315 C 962.676086 516.591492 956.022339 519.864197 947.241089 520.070374 C 940.241882 520.234619 934.107666 518.917053 929.048523 513.609436 C 922.676331 506.924255 922.469543 490.169769 935.324646 485.049469 C 943.881653 481.641205 952.349792 481.892487 960.654297 487.160217 z" stroke-linecap="round" />
</g>
<g transform="matrix(0.1 0 0 0.1 24.08 43.38)" id="4C0l5OL7GjozSnUgysk3j"  >
<path style="stroke: none; stroke-width: 1; stroke-dasharray: none; stroke-linecap: butt; stroke-dashoffset: 0; stroke-linejoin: miter; stroke-miterlimit: 4; fill: rgb(0,0,0); fill-opacity: 0; fill-rule: nonzero; opacity: 1;" vector-effect="non-scaling-stroke"  transform=" translate(-296.24, -428.25)" d="M 437.252747 422.64093 C 441.07309 432.387482 444.676147 441.796509 448.29953 451.258636 C 381.669312 476.506165 315.369751 501.628387 248.306961 527.039795 C 244.303543 519.196045 235.378937 519.928589 228.172119 517.348267 C 226.070557 516.595825 221.449783 518.644653 220.123459 520.754517 C 216.121597 527.12085 209.804428 532.682983 211.18338 541.534119 C 207.145828 542.788696 203.393295 544.119446 199.54277 545.040466 C 198.522156 545.284607 196.427979 544.564758 196.129074 543.786987 C 188.317245 523.461365 180.68782 503.065704 173.004852 482.69046 C 164.304016 459.615875 155.581085 436.549652 146.869537 413.479126 C 145.981369 411.127014 145.105621 408.770203 144.177734 406.291718 C 148.91597 404.56427 153.558456 402.871735 158.243607 401.163635 C 161.953308 406.074951 166.866226 408.868195 173.289734 409.100708 C 174.564743 409.146851 175.711655 410.794464 177.063782 411.154022 C 178.644089 411.574219 180.406281 411.603455 182.051514 411.433624 C 188.03894 410.815552 188.798538 404.823639 191.661591 401.231659 C 193.839432 398.499329 194.414108 394.181458 194.842743 390.469818 C 195.132843 387.957855 195.913483 386.822906 198.139084 385.984222 C 226.757202 375.200043 255.342056 364.327545 283.954285 353.527649 C 307.476013 344.6492 331.031586 335.860413 354.555542 326.987823 C 368.03244 321.904694 381.476227 316.733643 395.420837 311.41687 C 398.828613 320.478149 402.066528 329.11557 405.324493 337.745422 C 414.034576 360.816986 422.765137 383.88089 431.45932 406.958435 C 433.377869 412.050873 435.17981 417.187256 437.252747 422.64093 M 376.033691 384.273895 C 374.942352 380.942932 373.851013 377.611938 372.34845 373.025757 C 356.046326 379.140167 339.883331 385.202362 323.358978 391.400116 C 327.371979 401.902954 331.067963 411.576141 334.869354 421.525116 C 337.120575 420.419281 338.494781 419.593811 339.971313 419.042267 C 353.468658 414.000458 366.963287 408.949402 380.513855 404.05368 C 382.79953 403.227905 383.189514 402.61496 382.151367 400.247803 C 379.97113 395.276398 378.320221 390.072845 376.033691 384.273895 M 309.276306 431.966492 C 314.856567 429.712921 320.436829 427.45932 326.286896 425.096771 C 325.007812 421.710815 323.774384 418.44574 322.206024 414.293976 C 300.736908 422.41095 279.31369 430.510559 257.554932 438.737061 C 259.176239 442.468536 260.622772 445.797791 262.079468 449.150482 C 277.894897 443.303497 293.181854 437.651886 309.276306 431.966492 M 318.957977 404.615692 C 318.294891 402.988525 317.632782 401.360931 316.968567 399.734253 C 315.799591 396.87149 314.593933 395.126556 310.78656 396.866882 C 304.692566 399.652374 298.237579 401.642181 291.959076 404.03125 C 278.274963 409.238312 264.605927 414.484985 250.526688 419.870026 C 252.091629 423.476898 253.536194 426.806366 255.031769 430.253357 C 271.151917 424.135956 286.698273 418.287415 302.201294 412.326202 C 307.838989 410.158417 313.373413 407.722076 318.957977 404.615692 M 202.031342 499.314026 C 194.253433 478.786957 186.475525 458.259888 178.676697 437.677612 C 176.388107 438.36145 174.883621 438.962891 173.321396 439.248901 C 168.955597 440.048187 168.484451 442.275696 169.964569 446.180145 C 177.100876 465.005157 183.977295 483.928741 191.126129 502.748871 C 191.527573 503.805664 194.223099 505.171875 194.682648 504.828888 C 197.155075 502.983612 202.294937 505.301544 202.031342 499.314026 M 283.277649 450.965973 C 277.158936 453.152618 271.040222 455.339264 264.632812 457.629089 C 265.967682 461.220184 267.184875 464.494751 268.548096 468.162109 C 269.747406 467.896973 271.023132 467.777466 272.174805 467.335022 C 282.773804 463.263123 293.309143 459.022247 303.946991 455.055756 C 314.523132 451.112274 314.565552 451.226013 309.337708 440.837463 C 300.907532 444.063354 292.437012 447.304688 283.277649 450.965973 M 196.947876 444.566956 C 194.911545 445.402069 192.875198 446.237213 190.650909 447.149445 C 192.680984 452.125366 194.482193 456.540314 196.275177 460.93512 C 207.840729 457.240814 208.079575 456.652069 202.537842 446.024414 C 202.463303 445.88147 202.246811 445.789001 202.21904 445.648712 C 201.578476 442.411407 199.657333 442.9375 196.947876 444.566956 M 211.959167 469.648834 C 208.926559 465.931427 206.075256 469.048248 203.32991 470.08252 C 202.308899 470.467133 200.926224 472.34549 201.146088 473.149536 C 202.150345 476.821716 203.53096 480.415405 205.110855 483.884979 C 205.423477 484.571503 207.380249 485.112122 208.280121 484.815094 C 210.951874 483.933197 213.47464 482.599854 216.131622 481.408905 C 214.693451 477.599274 213.346451 474.031128 211.959167 469.648834 M 219.907272 493.38913 C 216.6689 493.900085 213.430511 494.411011 209.284485 495.065155 C 210.96582 499.97522 212.334442 504.334869 214.024353 508.566162 C 214.321869 509.311127 216.160767 510.123474 216.949173 509.866364 C 219.755951 508.950867 222.416534 507.587128 225.295959 506.321198 C 223.595291 501.977631 222.031418 497.98349 219.907272 493.38913 M 194.488785 424.99118 C 193.647949 422.965179 192.807114 420.939178 191.884979 418.717255 C 188.179276 420.095123 185.001129 421.276855 181.565689 422.55423 C 183.326614 427.388611 184.892471 431.687439 186.428101 435.903259 C 196.172974 435.947998 198.084137 433.578156 194.488785 424.99118 z" stroke-linecap="round" />
</g>
<g transform="matrix(0.1 0 0 0.1 28.3 53.65)" id="dDch5sAMnHqTZiVdLMEB-"  >
<path style="stroke: none; stroke-width: 1; stroke-dasharray: none; stroke-linecap: butt; stroke-dashoffset: 0; stroke-linejoin: miter; stroke-miterlimit: 4; fill: rgb(255,255,255); fill-opacity: 0; fill-rule: nonzero; opacity: 1;" vector-effect="non-scaling-stroke"  transform=" translate(-338.5, -530.92)" d="M 473 502 C 473 536.79834 473 571.09668 473 606.197327 C 401.842529 606.197327 330.868317 606.197327 259.323334 606.197327 C 257.762695 600.232178 253.406097 595.721924 246.950272 592.871094 C 244.810944 591.926392 243.580536 589.699402 240.493774 589.867432 C 233.321182 590.257874 222.764832 597.274292 219.914352 603.868591 C 219.334793 605.209412 217.496323 606.705566 216.09903 606.858521 C 212.323135 607.271667 208.47229 606.999939 204 606.999939 C 204 602.958435 204 599.036621 204 595.114807 C 204 584.786621 204 574.458435 204 564.130249 C 204 555.311157 204.286057 554.97644 213.756897 553.064697 C 213.756897 557.521423 213.756897 561.922363 213.756897 566.661621 C 217.508286 566.661621 220.914413 566.661621 225 566.661621 C 225 557.990906 224.989319 549.07196 225.004837 540.153015 C 225.011856 536.120728 223.980316 531.450195 229.517532 530.061707 C 234.359558 528.847595 238.130051 531.657654 240.593307 537.910522 C 238.254852 537.910522 235.973877 537.910522 233.006836 537.910522 C 233.006836 542.132812 232.793137 546.228271 233.158783 550.271362 C 233.248932 551.268066 235.120804 552.64624 236.356171 552.878723 C 238.606033 553.302002 240.992554 552.998962 243.589325 552.998962 C 243.729736 552.19928 244.107956 551.383057 243.961014 550.675964 C 242.441925 543.365906 245.517441 539.938538 252.591705 537.570374 C 269.585205 531.881592 286.243317 525.193909 303.071167 519.002747 C 304.845825 518.349854 306.848419 518.04895 308.746979 518.04187 C 327.404114 517.972473 346.061615 517.999939 364.718994 517.999878 C 365.678741 517.999878 366.638489 517.999878 367.432526 517.999878 C 367.71991 517.342529 367.951263 517.059814 367.95163 516.776855 C 367.96756 505.158752 369.232483 507.149841 358.235779 507.016602 C 350.993591 506.928802 343.749451 507 336.394562 506.372192 C 381.651459 489.270142 426.908325 472.16806 473 454.750549 C 473 471.245605 473 486.372803 473 502 M 407.499878 506 C 397.403748 506 387.307587 506 377.286835 506 C 377.286835 516.644775 377.286835 526.715698 377.286835 536.714355 C 394.643982 536.714355 411.712891 536.714355 428.713196 536.714355 C 428.713196 526.355164 428.713196 516.284241 428.713196 506 C 421.785217 506 415.142517 506 407.499878 506 M 367.995789 528.678955 C 366.559692 528.119324 365.126068 527.079773 363.687103 527.072266 C 343.417938 526.965942 323.14801 526.994812 302.878296 527.012451 C 301.618378 527.01355 300.358612 527.193604 299.318939 527.273499 C 299.318939 531.056946 299.318939 534.457886 299.318939 537.755371 C 322.328857 537.755371 345.019043 537.755371 367.999725 537.755371 C 367.999725 534.888184 367.999725 532.261963 367.995789 528.678955 M 310.51712 558 C 322.6138 558 334.71048 558 346.70694 558 C 346.70694 554.008911 346.70694 550.601929 346.70694 547.289917 C 330.67334 547.289917 314.934357 547.289917 299.294128 547.289917 C 299.294128 550.993103 299.294128 554.400146 299.294128 558 C 302.898712 558 306.210968 558 310.51712 558 M 244.945969 564.757507 C 241.354538 564.439026 237.763107 564.120544 234.286606 563.812256 C 234.286606 569.38562 234.286606 574.094055 234.286606 578.746826 C 237.961594 578.746826 241.343903 578.746826 244.996185 578.746826 C 244.996185 574.236572 244.996185 569.976379 244.945969 564.757507 z" stroke-linecap="round" />
</g>
<g transform="matrix(0.1 0 0 0.1 49.92 58.54)" id="B-geN_DyCFaVAjNy0zIP9"  >
<path style="stroke: none; stroke-width: 1; stroke-dasharray: none; stroke-linecap: butt; stroke-dashoffset: 0; stroke-linejoin: miter; stroke-miterlimit: 4; fill: rgb(0,0,0); fill-opacity: 0; fill-rule: nonzero; opacity: 1;" vector-effect="non-scaling-stroke"  transform=" translate(0, 0)" d="M 6.03722 -5.83631 C 11.3507 -4.72584 12.058219999999999 -0.9630200000000002 11.16808 2.8851900000000006 C 10.39415 6.23132 7.546379999999999 7.416620000000001 3.9575699999999996 7.23254 C -1.1200700000000001 6.9721 -6.22102 7.1665 -11.49214 7.1665 C -11.49214 2.37164 -11.49214 -2.0145299999999997 -11.49214 -7.25086 C -5.647049999999999 -6.76862 -0.019059999999999633 -6.304270000000001 6.037220000000001 -5.83631 z" stroke-linecap="round" />
</g>
<g transform="matrix(0.1 0 0 0.1 49.79 54.58)" id="Z3N_3O_BP9BcAexktQ9Am"  >
<path style="stroke: none; stroke-width: 1; stroke-dasharray: none; stroke-linecap: butt; stroke-dashoffset: 0; stroke-linejoin: miter; stroke-miterlimit: 4; fill: rgb(255,255,255); fill-opacity: 0; fill-rule: nonzero; opacity: 1;" vector-effect="non-scaling-stroke"  transform=" translate(0, 0)" d="M -10.38591 -5.03376 C -9.954450000000001 -6.07294 -9.53691 -7.1066400000000005 -9.09355 -7.117929999999999 C -4.291550000000001 -7.2397599999999995 0.52773 -7.42219 5.315199999999999 -7.135629999999999 C 9.09297 -6.909559999999999 10.60982 -3.573129999999999 10.36183 -0.6712699999999989 C 10.169749999999999 1.5762300000000011 8.09456 5.050650000000001 6.248729999999999 5.503660000000001 C 1.1023099999999992 6.766720000000001 -4.3601 6.742000000000001 -10.387810000000002 7.288330000000001 C -10.387810000000002 2.9177300000000015 -10.387810000000002 -0.8179299999999996 -10.385920000000002 -5.033749999999999 z" stroke-linecap="round" />
</g>
<g transform="matrix(0.1 0 0 0.1 70.49 57.71)" id="UaggvpcQUrSSgsC-NgDPQ"  >
<path style="stroke: none; stroke-width: 1; stroke-dasharray: none; stroke-linecap: butt; stroke-dashoffset: 0; stroke-linejoin: miter; stroke-miterlimit: 4; fill: rgb(255,255,255); fill-opacity: 0; fill-rule: nonzero; opacity: 1;" vector-effect="non-scaling-stroke"  transform=" translate(-760.39, -571.56)" d="M 770.999634 567.469849 C 770.743347 573.331787 772.212036 579.082031 767.156128 583.429932 C 762.32074 587.588196 754.912292 586.873352 752.159424 581.214966 C 749.232971 575.199951 748.714478 568.717163 752.189392 562.669678 C 754.194641 559.179993 757.532288 556.356384 761.749939 557.16333 C 766.832153 558.13562 770.125305 561.663879 770.999634 567.469849 z" stroke-linecap="round" />
</g>
<g transform="matrix(0.1 0 0 0.1 60.34 57.73)" id="hkXPQNer8961v5LqhoEjf"  >
<path style="stroke: none; stroke-width: 1; stroke-dasharray: none; stroke-linecap: butt; stroke-dashoffset: 0; stroke-linejoin: miter; stroke-miterlimit: 4; fill: rgb(0,0,0); fill-opacity: 0; fill-rule: nonzero; opacity: 1;" vector-effect="non-scaling-stroke"  transform=" translate(-658.9, -571.71)" d="M 649.003784 565.392944 C 651.725403 558.755859 657.843445 554.477234 663.90094 559.035217 C 665.256531 560.055237 666.366577 561.490173 667.347412 562.902405 C 669.78418 566.41095 669.729431 577.88208 667.215576 581.19574 C 664.591125 584.655151 660.943237 587.464661 656.730408 585.757141 C 653.692505 584.525757 650.299072 581.503662 649.315857 578.534607 C 648.038879 574.678528 648.995972 570.082581 649.003784 565.392944 z" stroke-linecap="round" />
</g>
<g transform="matrix(0.1 0 0 0.1 29.75 40.28)" id="swELPfWrdICng7MT9yl20"  >
<path style="stroke: none; stroke-width: 1; stroke-dasharray: none; stroke-linecap: butt; stroke-dashoffset: 0; stroke-linejoin: miter; stroke-miterlimit: 4; fill: rgb(255,255,255); fill-rule: nonzero; opacity: 1;" vector-effect="non-scaling-stroke"  transform=" translate(-353.03, -397.28)" d="M 376.242828 384.619263 C 378.320221 390.072845 379.97113 395.276398 382.151367 400.247803 C 383.189514 402.61496 382.79953 403.227905 380.513855 404.05368 C 366.963287 408.949402 353.468658 414.000458 339.971313 419.042267 C 338.494781 419.593811 337.120575 420.419281 334.869354 421.525116 C 331.067963 411.576141 327.371979 401.902954 323.358978 391.400116 C 339.883331 385.202362 356.046326 379.140167 372.34845 373.025757 C 373.851013 377.611938 374.942352 380.942932 376.242828 384.619263 z" stroke-linecap="round" />
</g>
<g transform="matrix(0.1 0 0 0.1 23.64 43.73)" id="5DykF4U4VSGWRhh9Q4vbE"  >
<path style="stroke: none; stroke-width: 1; stroke-dasharray: none; stroke-linecap: butt; stroke-dashoffset: 0; stroke-linejoin: miter; stroke-miterlimit: 4; fill: rgb(255,255,255); fill-rule: nonzero; opacity: 1;" vector-effect="non-scaling-stroke"  transform=" translate(-291.92, -431.72)" d="M 308.872559 431.983398 C 293.181854 437.651886 277.894897 443.303497 262.079468 449.150482 C 260.622772 445.797791 259.176239 442.468536 257.554932 438.737061 C 279.31369 430.510559 300.736908 422.41095 322.206024 414.293976 C 323.774384 418.44574 325.007812 421.710815 326.286896 425.096771 C 320.436829 427.45932 314.856567 429.712921 308.872559 431.983398 z" stroke-linecap="round" />
</g>
<g transform="matrix(0.1 0 0 0.1 22.93 41.88)" id="BOpvrH2KRYtE6-yUUtpKy"  >
<path style="stroke: none; stroke-width: 1; stroke-dasharray: none; stroke-linecap: butt; stroke-dashoffset: 0; stroke-linejoin: miter; stroke-miterlimit: 4; fill: rgb(255,255,255); fill-rule: nonzero; opacity: 1;" vector-effect="non-scaling-stroke"  transform=" translate(-284.74, -413.21)" d="M 318.956482 405.011963 C 313.373413 407.722076 307.838989 410.158417 302.201294 412.326202 C 286.698273 418.287415 271.151917 424.135956 255.031769 430.253357 C 253.536194 426.806366 252.091629 423.476898 250.526688 419.870026 C 264.605927 414.484985 278.274963 409.238312 291.959076 404.03125 C 298.237579 401.642181 304.692566 399.652374 310.78656 396.866882 C 314.593933 395.126556 315.799591 396.87149 316.968567 399.734253 C 317.632782 401.360931 318.294891 402.988525 318.956482 405.011963 z" stroke-linecap="round" />
</g>
<g transform="matrix(0.1 0 0 0.1 13.03 47.68)" id="mGlTNS-QWj60-xEyfz9lg"  >
<path style="stroke: none; stroke-width: 1; stroke-dasharray: none; stroke-linecap: butt; stroke-dashoffset: 0; stroke-linejoin: miter; stroke-miterlimit: 4; fill: rgb(255,255,255); fill-rule: nonzero; opacity: 1;" vector-effect="non-scaling-stroke"  transform=" translate(-185.73, -471.28)" d="M 202.250839 499.646973 C 202.294937 505.301544 197.155075 502.983612 194.682648 504.828888 C 194.223099 505.171875 191.527573 503.805664 191.126129 502.748871 C 183.977295 483.928741 177.100876 465.005157 169.964569 446.180145 C 168.484451 442.275696 168.955597 440.048187 173.321396 439.248901 C 174.883621 438.962891 176.388107 438.36145 178.676697 437.677612 C 186.475525 458.259888 194.253433 478.786957 202.250839 499.646973 z" stroke-linecap="round" />
</g>
<g transform="matrix(0.1 0 0 0.1 23.32 46.01)" id="XWztiAVzIQiU4BnbBVMhk"  >
<path style="stroke: none; stroke-width: 1; stroke-dasharray: none; stroke-linecap: butt; stroke-dashoffset: 0; stroke-linejoin: miter; stroke-miterlimit: 4; fill: rgb(255,255,255); fill-rule: nonzero; opacity: 1;" vector-effect="non-scaling-stroke"  transform=" translate(-288.69, -454.5)" d="M 283.62207 450.755981 C 292.437012 447.304688 300.907532 444.063354 309.337708 440.837463 C 314.565552 451.226013 314.523132 451.112274 303.946991 455.055756 C 293.309143 459.022247 282.773804 463.263123 272.174805 467.335022 C 271.023132 467.777466 269.747406 467.896973 268.548096 468.162109 C 267.184875 464.494751 265.967682 461.220184 264.632812 457.629089 C 271.040222 455.339264 277.158936 453.152618 283.62207 450.755981 z" stroke-linecap="round" />
</g>
<g transform="matrix(0.1 0 0 0.1 14.29 45.76)" id="HksAW02cCCi9Dtva8fnjl"  >
<path style="stroke: none; stroke-width: 1; stroke-dasharray: none; stroke-linecap: butt; stroke-dashoffset: 0; stroke-linejoin: miter; stroke-miterlimit: 4; fill: rgb(255,255,255); fill-rule: nonzero; opacity: 1;" vector-effect="non-scaling-stroke"  transform=" translate(-198.35, -452.09)" d="M 197.24115 444.303833 C 199.657333 442.9375 201.578476 442.411407 202.21904 445.648712 C 202.246811 445.789001 202.463303 445.88147 202.537842 446.024414 C 208.079575 456.652069 207.840729 457.240814 196.275177 460.93512 C 194.482193 456.540314 192.680984 452.125366 190.650909 447.149445 C 192.875198 446.237213 194.911545 445.402069 197.24115 444.303833 z" stroke-linecap="round" />
</g>
<g transform="matrix(0.1 0 0 0.1 15.32 48.2)" id="u2sSp_hpgLFpn6C-L_A63"  >
<path style="stroke: none; stroke-width: 1; stroke-dasharray: none; stroke-linecap: butt; stroke-dashoffset: 0; stroke-linejoin: miter; stroke-miterlimit: 4; fill: rgb(255,255,255); fill-rule: nonzero; opacity: 1;" vector-effect="non-scaling-stroke"  transform=" translate(-208.63, -476.44)" d="M 211.979309 470.055908 C 213.346451 474.031128 214.693451 477.599274 216.131622 481.408905 C 213.47464 482.599854 210.951874 483.933197 208.280121 484.815094 C 207.380249 485.112122 205.423477 484.571503 205.110855 483.884979 C 203.53096 480.415405 202.150345 476.821716 201.146088 473.149536 C 200.926224 472.34549 202.308899 470.467133 203.32991 470.08252 C 206.075256 469.048248 208.926559 465.931427 211.979309 470.055908 z" stroke-linecap="round" />
</g>
<g transform="matrix(0.1 0 0 0.1 16.18 50.73)" id="aVQcqPFCkztM_AtlBPLEL"  >
<path style="stroke: none; stroke-width: 1; stroke-dasharray: none; stroke-linecap: butt; stroke-dashoffset: 0; stroke-linejoin: miter; stroke-miterlimit: 4; fill: rgb(255,255,255); fill-rule: nonzero; opacity: 1;" vector-effect="non-scaling-stroke"  transform=" translate(-217.29, -501.8)" d="M 220.187408 493.68924 C 222.031418 497.98349 223.595291 501.977631 225.295959 506.321198 C 222.416534 507.587128 219.755951 508.950867 216.949173 509.866364 C 216.160767 510.123474 214.321869 509.311127 214.024353 508.566162 C 212.334442 504.334869 210.96582 499.97522 209.284485 495.065155 C 213.430511 494.411011 216.6689 493.900085 220.187408 493.68924 z" stroke-linecap="round" />
</g>
<g transform="matrix(0.1 0 0 0.1 13.34 43.29)" id="Mo9JNMxJ6t9X_2_bEolVu"  >
<path style="stroke: none; stroke-width: 1; stroke-dasharray: none; stroke-linecap: butt; stroke-dashoffset: 0; stroke-linejoin: miter; stroke-miterlimit: 4; fill: rgb(255,255,255); fill-rule: nonzero; opacity: 1;" vector-effect="non-scaling-stroke"  transform=" translate(-188.91, -427.31)" d="M 194.727142 425.313721 C 198.084137 433.578156 196.172974 435.947998 186.428101 435.903259 C 184.892471 431.687439 183.326614 427.388611 181.565689 422.55423 C 185.001129 421.276855 188.179276 420.095123 191.884979 418.717255 C 192.807114 420.939178 193.647949 422.965179 194.727142 425.313721 z" stroke-linecap="round" />
</g>
<g transform="matrix(0.1 0 0 0.1 34.75 52.69)" id="ibtsnA6WKFDfqOV6q9Aep"  >
<path style="stroke: none; stroke-width: 1; stroke-dasharray: none; stroke-linecap: butt; stroke-dashoffset: 0; stroke-linejoin: miter; stroke-miterlimit: 4; fill: rgb(255,255,255); fill-rule: nonzero; opacity: 1;" vector-effect="non-scaling-stroke"  transform=" translate(-403, -521.36)" d="M 407.999847 506 C 415.142517 506 421.785217 506 428.713196 506 C 428.713196 516.284241 428.713196 526.355164 428.713196 536.714355 C 411.712891 536.714355 394.643982 536.714355 377.286835 536.714355 C 377.286835 526.715698 377.286835 516.644775 377.286835 506 C 387.307587 506 397.403748 506 407.999847 506 z" stroke-linecap="round" />
</g>
<g transform="matrix(0.1 0 0 0.1 27.82 53.79)" id="QwMx_r1wcqRjHpCGUPIU8"  >
<path style="stroke: none; stroke-width: 1; stroke-dasharray: none; stroke-linecap: butt; stroke-dashoffset: 0; stroke-linejoin: miter; stroke-miterlimit: 4; fill: rgb(255,255,255); fill-rule: nonzero; opacity: 1;" vector-effect="non-scaling-stroke"  transform=" translate(-333.66, -532.38)" d="M 367.997742 529.157349 C 367.999725 532.261963 367.999725 534.888184 367.999725 537.755371 C 345.019043 537.755371 322.328857 537.755371 299.318939 537.755371 C 299.318939 534.457886 299.318939 531.056946 299.318939 527.273499 C 300.358612 527.193604 301.618378 527.01355 302.878296 527.012451 C 323.14801 526.994812 343.417938 526.965942 363.687103 527.072266 C 365.126068 527.079773 366.559692 528.119324 367.997742 529.157349 z" stroke-linecap="round" />
</g>
<g transform="matrix(0.1 0 0 0.1 26.75 55.82)" id="3nCYU3Xn3228hZ_Ef5h_j"  >
<path style="stroke: none; stroke-width: 1; stroke-dasharray: none; stroke-linecap: butt; stroke-dashoffset: 0; stroke-linejoin: miter; stroke-miterlimit: 4; fill: rgb(255,255,255); fill-rule: nonzero; opacity: 1;" vector-effect="non-scaling-stroke"  transform=" translate(-323, -552.64)" d="M 310.020142 558 C 306.210968 558 302.898712 558 299.294128 558 C 299.294128 554.400146 299.294128 550.993103 299.294128 547.289917 C 314.934357 547.289917 330.67334 547.289917 346.70694 547.289917 C 346.70694 550.601929 346.70694 554.008911 346.70694 558 C 334.71048 558 322.6138 558 310.020142 558 z" stroke-linecap="round" />
</g>
<g transform="matrix(0.1 0 0 0.1 18.42 57.68)" id="_ksH5JsXxtroyHQMRmFcX"  >
<path style="stroke: none; stroke-width: 1; stroke-dasharray: none; stroke-linecap: butt; stroke-dashoffset: 0; stroke-linejoin: miter; stroke-miterlimit: 4; fill: rgb(255,255,255); fill-rule: nonzero; opacity: 1;" vector-effect="non-scaling-stroke"  transform=" translate(-239.64, -571.28)" d="M 244.971069 565.236816 C 244.996185 569.976379 244.996185 574.236572 244.996185 578.746826 C 241.343903 578.746826 237.961594 578.746826 234.286606 578.746826 C 234.286606 574.094055 234.286606 569.38562 234.286606 563.812256 C 237.763107 564.120544 241.354538 564.439026 244.971069 565.236816 z" stroke-linecap="round" />
</g>
</svg>